<svg width="1240" height="52" viewBox="0 0 1240 52" fill="none" xmlns="http://www.w3.org/2000/svg">
<path d="M0 16C0 10.3995 0 7.59921 1.08993 5.46009C2.04867 3.57847 3.57847 2.04867 5.46009 1.08993C7.59921 0 10.3995 0 16 0H1224C1229.6 0 1232.4 0 1234.54 1.08993C1236.42 2.04867 1237.95 3.57847 1238.91 5.46009C1240 7.59921 1240 10.3995 1240 16V52H0V16Z" fill="#FDFDFD"/>
<g clip-path="url(#clip0_53_387)">
<path d="M1140.01 27.3736C1140.43 27.3736 1140.78 27.0253 1140.78 26.6107V18.2676L1140.72 17.0402L1141.23 17.6456L1142.39 18.8813C1142.52 19.0306 1142.71 19.1052 1142.9 19.1052C1143.28 19.1052 1143.6 18.8315 1143.6 18.4417C1143.6 18.2344 1143.51 18.0851 1143.37 17.9441L1140.6 15.2654C1140.4 15.0663 1140.21 15 1140.01 15C1139.8 15 1139.62 15.0663 1139.42 15.2654L1136.64 17.9441C1136.49 18.0851 1136.41 18.2344 1136.41 18.4417C1136.41 18.8315 1136.72 19.1052 1137.1 19.1052C1137.29 19.1052 1137.49 19.0306 1137.62 18.8813L1138.78 17.6456L1139.3 17.0319L1139.23 18.2676V26.6107C1139.23 27.0253 1139.58 27.3736 1140.01 27.3736ZM1135.23 34H1144.77C1146.57 34 1147.5 33.0711 1147.5 31.2964V23.144C1147.5 21.3693 1146.57 20.4404 1144.77 20.4404H1142.54V22.0908H1144.67C1145.42 22.0908 1145.85 22.4889 1145.85 23.285V31.1471C1145.85 31.9433 1145.42 32.3413 1144.67 32.3413H1135.33C1134.57 32.3413 1134.15 31.9433 1134.15 31.1471V23.285C1134.15 22.4889 1134.57 22.0908 1135.33 22.0908H1137.49V20.4404H1135.23C1133.44 20.4404 1132.5 21.361 1132.5 23.144V31.2964C1132.5 33.0711 1133.44 34 1135.23 34Z" fill="#717171"/>
<path d="M1175 32C1175.53 32 1175.95 31.5723 1175.95 31.087V25.9377H1181.05C1181.57 25.9377 1182 25.5182 1182 25C1182 24.49 1181.57 24.0623 1181.05 24.0623H1175.95V18.913C1175.95 18.4195 1175.53 18 1175 18C1174.48 18 1174.05 18.4195 1174.05 18.913V24.0623H1168.95C1168.45 24.0623 1168 24.49 1168 25C1168 25.5182 1168.45 25.9377 1168.95 25.9377H1174.05V31.087C1174.05 31.5723 1174.48 32 1175 32Z" fill="#717171"/>
<path d="M1205.73 30.0346H1207.14V31.2866C1207.14 33.0609 1208.07 33.9895 1209.87 33.9895H1218.27C1220.06 33.9895 1221 33.0609 1221 31.2866V22.8213C1221 21.047 1220.06 20.1184 1218.27 20.1184H1216.86V18.8748C1216.86 17.1005 1215.93 16.1719 1214.13 16.1719H1205.73C1203.93 16.1719 1203 17.1005 1203 18.8748V27.3317C1203 29.1143 1203.93 30.0346 1205.73 30.0346ZM1205.84 28.3847C1205.07 28.3847 1204.65 27.9867 1204.65 27.1825V19.024C1204.65 18.2198 1205.07 17.8301 1205.84 17.8301H1214.03C1214.78 17.8301 1215.21 18.2198 1215.21 19.024V20.1184H1209.87C1208.07 20.1184 1207.14 21.047 1207.14 22.8213V28.3847H1205.84ZM1209.97 32.3312C1209.21 32.3312 1208.8 31.9333 1208.8 31.1373V22.9706C1208.8 22.1746 1209.21 21.7767 1209.97 21.7767H1218.16C1218.93 21.7767 1219.35 22.1746 1219.35 22.9706V31.1373C1219.35 31.9333 1218.93 32.3312 1218.16 32.3312H1209.97Z" fill="#717171"/>
</g>
<g clip-path="url(#clip1_53_387)">
<path d="M100.731 33.5142H114.934C116.735 33.5142 117.673 32.5845 117.673 30.8081V20.7061C117.673 18.9297 116.735 18 114.934 18H100.731C98.938 18 98 18.9214 98 20.7061V30.8081C98 32.5845 98.938 33.5142 100.731 33.5142ZM100.839 31.8623C100.075 31.8623 99.6519 31.4639 99.6519 30.6587V20.8555C99.6519 20.0503 100.075 19.6519 100.839 19.6519H104.624V31.8623H100.839ZM114.826 19.6519C115.589 19.6519 116.013 20.0503 116.013 20.8555V30.6587C116.013 31.4639 115.589 31.8623 114.826 31.8623H106.193V19.6519H114.826ZM102.997 22.6899C103.296 22.6899 103.545 22.4326 103.545 22.1504C103.545 21.8682 103.296 21.6191 102.997 21.6191H101.295C100.997 21.6191 100.748 21.8682 100.748 22.1504C100.748 22.4326 100.997 22.6899 101.295 22.6899H102.997ZM102.997 24.9229C103.296 24.9229 103.545 24.6738 103.545 24.3833C103.545 24.1011 103.296 23.8521 102.997 23.8521H101.295C100.997 23.8521 100.748 24.1011 100.748 24.3833C100.748 24.6738 100.997 24.9229 101.295 24.9229H102.997ZM102.997 27.1475C103.296 27.1475 103.545 26.9067 103.545 26.6162C103.545 26.334 103.296 26.0933 102.997 26.0933H101.295C100.997 26.0933 100.748 26.334 100.748 26.6162C100.748 26.9067 100.997 27.1475 101.295 27.1475H102.997Z" fill="#717171"/>
<path d="M149.398 32.0938L143.32 26.1484C143.109 25.9375 143 25.7031 143 25.4297C143 25.1562 143.109 24.9062 143.328 24.7031L149.406 18.7656C149.578 18.5938 149.797 18.5 150.047 18.5C150.57 18.5 150.977 18.9062 150.977 19.4219C150.977 19.6719 150.875 19.9141 150.695 20.0938L145.227 25.4219L150.695 30.7656C150.875 30.9453 150.977 31.1797 150.977 31.4375C150.977 31.9531 150.57 32.3594 150.047 32.3594C149.797 32.3594 149.578 32.2656 149.398 32.0938Z" fill="#717171"/>
<path d="M179.43 32.3594C179.688 32.3594 179.898 32.2656 180.078 32.0938L186.156 26.1562C186.367 25.9375 186.477 25.7109 186.477 25.4297C186.477 25.1562 186.375 24.9141 186.156 24.7109L180.078 18.7656C179.898 18.5938 179.688 18.5 179.43 18.5C178.906 18.5 178.5 18.9062 178.5 19.4219C178.5 19.6719 178.609 19.9141 178.781 20.0938L184.258 25.4375L178.781 30.7656C178.602 30.9531 178.5 31.1797 178.5 31.4375C178.5 31.9531 178.906 32.3594 179.43 32.3594Z" fill="#BDBCBC"/>
</g>
<g clip-path="url(#clip2_53_387)">
<circle cx="26" cy="26" r="6" fill="#ED6A5E"/>
<circle cx="26" cy="26" r="5.5" stroke="black" stroke-opacity="0.1"/>
<circle cx="46" cy="26" r="6" fill="#F4BD50"/>
<circle cx="46" cy="26" r="5.5" stroke="black" stroke-opacity="0.1"/>
<circle cx="66" cy="26" r="6" fill="#61C454"/>
<circle cx="66" cy="26" r="5.5" stroke="black" stroke-opacity="0.1"/>
</g>
<path d="M379.104 21.6C379.104 18.2397 379.104 16.5595 379.758 15.2761C380.333 14.1471 381.251 13.2292 382.38 12.654C383.664 12 385.344 12 388.704 12H851.504C854.865 12 856.545 12 857.828 12.654C858.957 13.2292 859.875 14.1471 860.45 15.2761C861.104 16.5595 861.104 18.2397 861.104 21.6V30.4C861.104 33.7603 861.104 35.4405 860.45 36.7239C859.875 37.8529 858.957 38.7708 857.828 39.346C856.545 40 854.865 40 851.504 40H388.704C385.344 40 383.664 40 382.38 39.346C381.251 38.7708 380.333 37.8529 379.758 36.7239C379.104 35.4405 379.104 33.7603 379.104 30.4V21.6Z" fill="#F0F0F0"/>
<path d="M540.749 31.9121H546.432C547.218 31.9121 547.604 31.5254 547.604 30.6699V26.2812C547.604 25.5078 547.288 25.1152 546.632 25.0508V23.6035C546.632 21.377 545.149 20.3047 543.591 20.3047C542.032 20.3047 540.55 21.377 540.55 23.6035V25.0684C539.94 25.1621 539.577 25.5488 539.577 26.2812V30.6699C539.577 31.5254 539.964 31.9121 540.749 31.9121ZM541.675 23.498C541.675 22.1328 542.542 21.3828 543.591 21.3828C544.634 21.3828 545.507 22.1328 545.507 23.498V25.0391L541.675 25.0449V23.498Z" fill="#9C9C9C"/>
<path d="M555.115 31H556.592V26.8438C556.592 25.709 557.261 24.957 558.355 24.957C559.394 24.957 559.927 25.5928 559.927 26.6523V31H561.411V26.3652C561.411 24.7383 560.468 23.6855 558.888 23.6855C557.795 23.6855 557.009 24.1709 556.612 25.0117H556.578V21.1357H555.115V31ZM563.27 22.1064V23.8086H562.224V24.9775H563.27V29.1064C563.27 30.4941 563.838 31.0479 565.294 31.0479C565.622 31.0479 565.95 31.0205 566.114 30.9795V29.8105C566.018 29.8311 565.779 29.8447 565.629 29.8447C565.027 29.8447 564.754 29.5645 564.754 28.9424V24.9775H566.121V23.8086H564.754V22.1064H563.27ZM567.768 22.1064V23.8086H566.722V24.9775H567.768V29.1064C567.768 30.4941 568.336 31.0479 569.792 31.0479C570.12 31.0479 570.448 31.0205 570.612 30.9795V29.8105C570.516 29.8311 570.277 29.8447 570.127 29.8447C569.525 29.8447 569.252 29.5645 569.252 28.9424V24.9775H570.619V23.8086H569.252V22.1064H567.768ZM575.582 23.6924C574.543 23.6924 573.716 24.2188 573.292 25.0459H573.264V23.8086H571.836V33.3789H573.312V29.8174H573.346C573.757 30.6172 574.577 31.123 575.609 31.123C577.414 31.123 578.61 29.6807 578.61 27.4043C578.61 25.1279 577.407 23.6924 575.582 23.6924ZM575.192 29.8721C574.057 29.8721 573.305 28.9014 573.305 27.4043C573.305 25.9209 574.064 24.9365 575.192 24.9365C576.361 24.9365 577.093 25.9004 577.093 27.4043C577.093 28.915 576.361 29.8721 575.192 29.8721ZM579.622 25.8457C579.622 26.8506 580.278 27.5273 581.577 27.8418L582.862 28.1562C583.614 28.3477 583.887 28.6006 583.887 29.0586C583.887 29.6396 583.341 30.0088 582.452 30.0088C581.55 30.0088 581.016 29.626 580.9 28.9355H579.437C579.553 30.2549 580.681 31.1367 582.384 31.1367C584.147 31.1367 585.371 30.2344 585.371 28.9219C585.371 27.8623 584.824 27.3154 583.375 26.9668L582.165 26.6865C581.42 26.502 581.064 26.2012 581.064 25.7568C581.064 25.1895 581.597 24.7998 582.397 24.7998C583.224 24.7998 583.751 25.2031 583.819 25.8525H585.207C585.159 24.5742 584.038 23.6787 582.438 23.6787C580.757 23.6787 579.622 24.5605 579.622 25.8457ZM587.627 31.0752C588.126 31.0752 588.522 30.6787 588.522 30.1797C588.522 29.6807 588.126 29.2842 587.627 29.2842C587.128 29.2842 586.731 29.6807 586.731 30.1797C586.731 30.6787 587.128 31.0752 587.627 31.0752ZM587.627 26.0918C588.126 26.0918 588.522 25.7021 588.522 25.1963C588.522 24.6973 588.126 24.3008 587.627 24.3008C587.128 24.3008 586.731 24.6973 586.731 25.1963C586.731 25.7021 587.128 26.0918 587.627 26.0918ZM590.778 33.1055L594.278 21.1357H592.966L589.466 33.1055H590.778ZM595.591 33.1055L599.091 21.1357H597.778L594.278 33.1055H595.591ZM602.338 29.9541C601.545 29.9541 601.025 29.5439 601.025 28.915C601.025 28.2998 601.524 27.9102 602.406 27.8486L604.177 27.7393V28.3066C604.177 29.2432 603.37 29.9541 602.338 29.9541ZM601.927 31.123C602.871 31.123 603.78 30.6172 604.197 29.8174H604.231V31H605.646V26.0439C605.646 24.6016 604.532 23.6787 602.789 23.6787C601.011 23.6787 599.904 24.6357 599.822 25.9346H601.217C601.346 25.292 601.88 24.8818 602.734 24.8818C603.636 24.8818 604.177 25.3604 604.177 26.1602V26.7139L602.208 26.8301C600.499 26.9258 599.535 27.6982 599.535 28.9561C599.535 30.248 600.519 31.123 601.927 31.123ZM610.828 23.6924C609.789 23.6924 608.962 24.2188 608.538 25.0459H608.51V23.8086H607.082V33.3789H608.558V29.8174H608.593C609.003 30.6172 609.823 31.123 610.855 31.123C612.66 31.123 613.856 29.6807 613.856 27.4043C613.856 25.1279 612.653 23.6924 610.828 23.6924ZM610.438 29.8721C609.303 29.8721 608.552 28.9014 608.552 27.4043C608.552 25.9209 609.31 24.9365 610.438 24.9365C611.607 24.9365 612.339 25.9004 612.339 27.4043C612.339 28.915 611.607 29.8721 610.438 29.8721ZM618.744 23.6924C617.705 23.6924 616.878 24.2188 616.454 25.0459H616.427V23.8086H614.998V33.3789H616.474V29.8174H616.509C616.919 30.6172 617.739 31.123 618.771 31.123C620.576 31.123 621.772 29.6807 621.772 27.4043C621.772 25.1279 620.569 23.6924 618.744 23.6924ZM618.354 29.8721C617.219 29.8721 616.468 28.9014 616.468 27.4043C616.468 25.9209 617.226 24.9365 618.354 24.9365C619.523 24.9365 620.255 25.9004 620.255 27.4043C620.255 28.915 619.523 29.8721 618.354 29.8721ZM623.679 31.0752C624.178 31.0752 624.575 30.6787 624.575 30.1797C624.575 29.6807 624.178 29.2842 623.679 29.2842C623.18 29.2842 622.784 29.6807 622.784 30.1797C622.784 30.6787 623.18 31.0752 623.679 31.0752ZM626.304 31H627.781V26.8438C627.781 25.709 628.451 24.957 629.545 24.957C630.584 24.957 631.117 25.5928 631.117 26.6523V31H632.6V26.3652C632.6 24.7383 631.657 23.6855 630.078 23.6855C628.984 23.6855 628.198 24.1709 627.802 25.0117H627.767V21.1357H626.304V31ZM634.077 31H635.553V23.8086H634.077V31ZM634.815 22.7559C635.294 22.7559 635.677 22.3799 635.677 21.915C635.677 21.4434 635.294 21.0674 634.815 21.0674C634.344 21.0674 633.961 21.4434 633.961 21.915C633.961 22.3799 634.344 22.7559 634.815 22.7559ZM637.064 31H638.541V26.6934C638.541 25.6748 639.129 25.0391 640.079 25.0391C640.366 25.0391 640.626 25.0732 640.742 25.1211V23.7471C640.633 23.7266 640.448 23.6924 640.236 23.6924C639.388 23.6924 638.746 24.1914 638.507 25.0322H638.472V23.8086H637.064V31ZM644.351 24.8682C645.384 24.8682 646.081 25.6406 646.115 26.7412H642.519C642.594 25.6543 643.319 24.8682 644.351 24.8682ZM646.108 28.8877C645.91 29.5166 645.288 29.9404 644.447 29.9404C643.264 29.9404 642.512 29.1133 642.512 27.8623V27.7734H647.592V27.2676C647.592 25.0869 646.347 23.6787 644.351 23.6787C642.321 23.6787 641.022 25.1826 641.022 27.4385C641.022 29.708 642.301 31.1367 644.413 31.1367C646.06 31.1367 647.304 30.2002 647.51 28.8877H646.108ZM652.486 23.6924C651.447 23.6924 650.62 24.2188 650.196 25.0459H650.169V23.8086H648.74V33.3789H650.217V29.8174H650.251C650.661 30.6172 651.481 31.123 652.513 31.123C654.318 31.123 655.514 29.6807 655.514 27.4043C655.514 25.1279 654.311 23.6924 652.486 23.6924ZM652.096 29.8721C650.962 29.8721 650.21 28.9014 650.21 27.4043C650.21 25.9209 650.969 24.9365 652.096 24.9365C653.265 24.9365 653.997 25.9004 653.997 27.4043C653.997 28.915 653.265 29.8721 652.096 29.8721ZM662.822 23.8086H661.345V27.999C661.345 29.1201 660.703 29.8584 659.636 29.8584C658.618 29.8584 658.098 29.2705 658.098 28.1768V23.8086H656.622V28.4639C656.622 30.1113 657.579 31.1299 659.144 31.1299C660.245 31.1299 660.976 30.6445 661.373 29.7832H661.407V31H662.822V23.8086ZM664.34 31H665.816V21.1357H664.34V31ZM667.204 25.8457C667.204 26.8506 667.86 27.5273 669.159 27.8418L670.444 28.1562C671.196 28.3477 671.469 28.6006 671.469 29.0586C671.469 29.6396 670.923 30.0088 670.034 30.0088C669.132 30.0088 668.598 29.626 668.482 28.9355H667.019C667.135 30.2549 668.263 31.1367 669.966 31.1367C671.729 31.1367 672.953 30.2344 672.953 28.9219C672.953 27.8623 672.406 27.3154 670.957 26.9668L669.747 26.6865C669.002 26.502 668.646 26.2012 668.646 25.7568C668.646 25.1895 669.179 24.7998 669.979 24.7998C670.806 24.7998 671.333 25.2031 671.401 25.8525H672.789C672.741 24.5742 671.62 23.6787 670.02 23.6787C668.339 23.6787 667.204 24.5605 667.204 25.8457ZM677.109 24.8682C678.141 24.8682 678.839 25.6406 678.873 26.7412H675.277C675.352 25.6543 676.077 24.8682 677.109 24.8682ZM678.866 28.8877C678.668 29.5166 678.046 29.9404 677.205 29.9404C676.022 29.9404 675.27 29.1133 675.27 27.8623V27.7734H680.349V27.2676C680.349 25.0869 679.105 23.6787 677.109 23.6787C675.079 23.6787 673.78 25.1826 673.78 27.4385C673.78 29.708 675.058 31.1367 677.171 31.1367C678.818 31.1367 680.062 30.2002 680.267 28.8877H678.866ZM682.605 31.0752C683.104 31.0752 683.501 30.6787 683.501 30.1797C683.501 29.6807 683.104 29.2842 682.605 29.2842C682.106 29.2842 681.71 29.6807 681.71 30.1797C681.71 30.6787 682.106 31.0752 682.605 31.0752ZM685.223 31H686.7V23.8086H685.223V31ZM685.962 22.7559C686.44 22.7559 686.823 22.3799 686.823 21.915C686.823 21.4434 686.44 21.0674 685.962 21.0674C685.49 21.0674 685.107 21.4434 685.107 21.915C685.107 22.3799 685.49 22.7559 685.962 22.7559ZM691.301 31.1367C693.358 31.1367 694.712 29.7217 694.712 27.4043C694.712 25.0938 693.351 23.6787 691.301 23.6787C689.25 23.6787 687.889 25.0938 687.889 27.4043C687.889 29.7217 689.243 31.1367 691.301 31.1367ZM691.301 29.9199C690.145 29.9199 689.393 29.0039 689.393 27.4043C689.393 25.8115 690.145 24.8955 691.301 24.8955C692.456 24.8955 693.208 25.8115 693.208 27.4043C693.208 29.0039 692.463 29.9199 691.301 29.9199ZM696.38 33.1055L699.88 21.1357H698.567L695.067 33.1055H696.38Z" fill="#4C4C4C"/>
<a href="https://app.hirepulse.io/">
<rect fill="black" fill-opacity="0" x="0.224609" y="0.146484" width="145.551" height="16.707"/>
</a>
<path d="M848.934 24.7324C849.104 24.7324 849.239 24.6797 849.344 24.5684L851.747 22.1484C851.876 22.0195 851.934 21.8789 851.934 21.7148C851.934 21.5566 851.87 21.4043 851.747 21.2871L849.344 18.8438C849.239 18.7266 849.104 18.668 848.934 18.668C848.618 18.668 848.366 18.9316 848.366 19.2539C848.366 19.4121 848.425 19.541 848.524 19.6523L849.925 21.0234C849.649 20.9824 849.368 20.959 849.087 20.959C846.186 20.959 843.866 23.2793 843.866 26.1855C843.866 29.0918 846.204 31.4297 849.104 31.4297C852.01 31.4297 854.343 29.0918 854.343 26.1855C854.343 25.834 854.096 25.582 853.745 25.582C853.405 25.582 853.177 25.834 853.177 26.1855C853.177 28.4473 851.366 30.2637 849.104 30.2637C846.848 30.2637 845.032 28.4473 845.032 26.1855C845.032 23.9062 846.831 22.1016 849.087 22.1016C849.468 22.1016 849.819 22.1309 850.13 22.1836L848.53 23.7656C848.425 23.8711 848.366 24 848.366 24.1582C848.366 24.4805 848.618 24.7324 848.934 24.7324Z" fill="#787878"/>
<path d="M356.104 34C356.253 34 356.477 33.9499 356.683 33.8329C361.449 31.2182 363.104 30.0069 363.104 26.9661V20.659C363.104 19.6565 362.715 19.2973 361.888 18.9381C360.969 18.5455 357.883 17.4595 356.981 17.1504C356.708 17.0585 356.386 17 356.104 17C355.823 17 355.5 17.0752 355.227 17.1504C354.325 17.4093 351.239 18.5538 350.321 18.9381C349.493 19.2889 349.104 19.6565 349.104 20.659V26.9661C349.104 30.0069 350.767 31.2015 355.517 33.8329C355.732 33.9499 355.955 34 356.104 34ZM356.551 18.6875C357.635 19.1219 359.993 19.9656 361.234 20.4084C361.466 20.5002 361.524 20.6256 361.524 20.9263V26.657C361.524 29.1047 360.308 29.7646 356.576 32.0369C356.344 32.1789 356.228 32.229 356.113 32.229V18.5956C356.228 18.5956 356.352 18.6206 356.551 18.6875Z" fill="#717171"/>
<defs>
<clipPath id="clip0_53_387">
<rect width="96" height="24" fill="white" transform="translate(1128 13)"/>
</clipPath>
<clipPath id="clip1_53_387">
<rect width="98" height="24" fill="white" transform="translate(96 13)"/>
</clipPath>
<clipPath id="clip2_53_387">
<rect width="52" height="12" fill="white" transform="translate(20 20)"/>
</clipPath>
</defs>
</svg>
